<?xml version="1.0" encoding="UTF-8" standalone="no"?>
<!DOCTYPE svg PUBLIC "-//W3C//DTD SVG 1.1//EN" "http://www.w3.org/Graphics/SVG/1.1/DTD/svg11.dtd">
<svg width="100%" height="100%" viewBox="0 0 219 253" version="1.1" xmlns="http://www.w3.org/2000/svg" xmlns:xlink="http://www.w3.org/1999/xlink" xml:space="preserve" xmlns:serif="http://www.serif.com/" style="fill-rule:evenodd;clip-rule:evenodd;stroke-linecap:round;stroke-linejoin:round;stroke-miterlimit:1;">
    <g transform="matrix(1,0,0,1,-15,-15)">
        <g transform="matrix(0.630833,0,0,0.943333,0,0)">
            <g id="Left" transform="matrix(1.5852,0,0,1.06007,-202.906,0)">
                <path d="M255.318,16.985C253.836,16.356 252.163,16.353 250.679,16.978C236.804,22.823 164.852,53.133 147.682,60.366C145.451,61.306 144,63.491 144,65.912L144,209.248C144,211.545 145.305,213.643 147.366,214.658C163.814,222.758 235.547,258.084 250.33,265.364C252.013,266.193 253.986,266.189 255.666,265.354C270.362,258.05 341.425,222.729 357.682,214.649C359.715,213.639 361,211.565 361,209.295C361,188.581 361,87.276 361,65.887C361,63.48 359.562,61.305 357.346,60.363C340.331,53.129 269.109,22.849 255.318,16.985Z" style="fill:rgb(48,60,68);stroke:black;stroke-width:1.04px;"/>
                <g id="Orange" transform="matrix(1,0,0,1,0,100)">
                    <path d="M253.855,34.362C253.308,34.131 252.691,34.129 252.144,34.359C243.56,37.959 173.071,67.519 161.581,72.337C160.623,72.739 160,73.676 160,74.714C160,79.517 160,93.16 160,99.375C160,101.308 161.093,103.075 162.822,103.938C178.321,111.679 252.407,148.679 252.407,148.679C252.407,148.679 325.533,112.232 341.814,104.117C343.766,103.144 345,101.15 345,98.969C345,92.705 345,79.91 345,74.99C345,73.783 344.279,72.694 343.168,72.224C331.021,67.074 262.316,37.949 253.855,34.362Z" style="fill:rgb(35,75,211);"/>
                    <path d="M344.485,73.308L344.316,73.082L344.374,73.154C344.396,73.183 344.485,73.308 344.485,73.308L344.485,98.957C344.485,101.145 343.244,103.143 341.284,104.113C325.03,112.157 252.407,148.097 252.407,148.097C252.407,148.097 178.837,111.609 163.364,103.935C161.628,103.074 160.53,101.303 160.53,99.365L160.53,73.149C160.558,73.113 160.587,73.077 160.617,73.042L160.53,73L160.53,73.149C160.193,73.589 160,74.136 160,74.714C160,79.517 160,93.16 160,99.375C160,101.308 161.093,103.075 162.822,103.938C178.321,111.679 252.407,148.679 252.407,148.679C252.407,148.679 325.533,112.232 341.814,104.117C343.766,103.144 345,101.15 345,98.969C345,92.705 345,79.91 345,74.99C345,74.377 344.814,73.794 344.485,73.308ZM160.617,73.042L252.044,116.816C252.648,117.106 253.351,117.104 253.954,116.812L344.316,73.082C344.015,72.714 343.624,72.417 343.168,72.224C331.021,67.074 262.316,37.949 253.855,34.362C253.308,34.131 252.691,34.129 252.144,34.359C243.56,37.959 173.071,67.519 161.581,72.337C161.201,72.497 160.873,72.74 160.617,73.042Z" style="fill:rgb(35,132,211);"/>
                    <g>
                        <path d="M160.617,73.042L253,116.816L344.316,73.082C344.015,72.714 343.624,72.417 343.168,72.224C331.021,67.074 261.462,37.775 253,34.188C253,34.188 173.071,67.519 161.581,72.337C161.201,72.497 160.873,72.74 160.617,73.042Z" style="fill:none;stroke:black;stroke-width:1px;"/>
                        <path d="M253.855,34.362C253.308,34.131 252.691,34.129 252.144,34.359C243.56,37.959 173.071,67.519 161.581,72.337C160.623,72.739 160,73.676 160,74.714C160,79.517 160,93.16 160,99.375C160,101.308 161.093,103.075 162.822,103.938C178.321,111.679 252.407,148.679 252.407,148.679C252.407,148.679 325.533,112.232 341.814,104.117C343.766,103.144 345,101.15 345,98.969C345,92.705 345,79.91 345,74.99C345,73.783 344.279,72.694 343.168,72.224C331.021,67.074 262.316,37.949 253.855,34.362Z" style="fill:none;stroke:black;stroke-width:1px;"/>
                    </g>
                </g>
                <g id="Orange1" serif:id="Orange" transform="matrix(1,0,0,1,0,50)">
                    <path d="M253.855,34.362C253.308,34.131 252.691,34.129 252.144,34.359C243.56,37.959 173.071,67.519 161.581,72.337C160.623,72.739 160,73.676 160,74.714C160,79.517 160,93.16 160,99.375C160,101.308 161.093,103.075 162.822,103.938C178.321,111.679 252.407,148.679 252.407,148.679C252.407,148.679 325.533,112.232 341.814,104.117C343.766,103.144 345,101.15 345,98.969C345,92.705 345,79.91 345,74.99C345,73.783 344.279,72.694 343.168,72.224C331.021,67.074 262.316,37.949 253.855,34.362Z" style="fill:rgb(60,133,56);"/>
                    <path d="M344.485,73.308L344.316,73.082L344.374,73.154C344.396,73.183 344.485,73.308 344.485,73.308L344.485,98.957C344.485,101.145 343.244,103.143 341.284,104.113C325.03,112.157 252.407,148.097 252.407,148.097C252.407,148.097 178.837,111.609 163.364,103.935C161.628,103.074 160.53,101.303 160.53,99.365L160.53,73.149C160.558,73.113 160.587,73.077 160.617,73.042L160.53,73L160.53,73.149C160.193,73.589 160,74.136 160,74.714C160,79.517 160,93.16 160,99.375C160,101.308 161.093,103.075 162.822,103.938C178.321,111.679 252.407,148.679 252.407,148.679C252.407,148.679 325.533,112.232 341.814,104.117C343.766,103.144 345,101.15 345,98.969C345,92.705 345,79.91 345,74.99C345,74.377 344.814,73.794 344.485,73.308ZM160.617,73.042L252.044,116.816C252.648,117.106 253.351,117.104 253.954,116.812L344.316,73.082C344.015,72.714 343.624,72.417 343.168,72.224C331.021,67.074 262.316,37.949 253.855,34.362C253.308,34.131 252.691,34.129 252.144,34.359C243.56,37.959 173.071,67.519 161.581,72.337C161.201,72.497 160.873,72.74 160.617,73.042Z" style="fill:rgb(60,178,56);"/>
                    <g>
                        <path d="M160.617,73.042L253,116.816L344.316,73.082C344.015,72.714 343.624,72.417 343.168,72.224C331.021,67.074 261.462,37.775 253,34.188C253,34.188 173.071,67.519 161.581,72.337C161.201,72.497 160.873,72.74 160.617,73.042Z" style="fill:none;stroke:black;stroke-width:1px;"/>
                        <path d="M253.855,34.362C253.308,34.131 252.691,34.129 252.144,34.359C243.56,37.959 173.071,67.519 161.581,72.337C160.623,72.739 160,73.676 160,74.714C160,79.517 160,93.16 160,99.375C160,101.308 161.093,103.075 162.822,103.938C178.321,111.679 252.407,148.679 252.407,148.679C252.407,148.679 325.533,112.232 341.814,104.117C343.766,103.144 345,101.15 345,98.969C345,92.705 345,79.91 345,74.99C345,73.783 344.279,72.694 343.168,72.224C331.021,67.074 262.316,37.949 253.855,34.362Z" style="fill:none;stroke:black;stroke-width:1px;"/>
                    </g>
                </g>
                <g id="Orange2" serif:id="Orange">
                    <path d="M253.855,34.362C253.308,34.131 252.691,34.129 252.144,34.359C243.56,37.959 173.071,67.519 161.581,72.337C160.623,72.739 160,73.676 160,74.714C160,79.517 160,93.16 160,99.375C160,101.308 161.093,103.075 162.822,103.938C178.321,111.679 252.407,148.679 252.407,148.679C252.407,148.679 325.533,112.232 341.814,104.117C343.766,103.144 345,101.15 345,98.969C345,92.705 345,79.91 345,74.99C345,73.783 344.279,72.694 343.168,72.224C331.021,67.074 262.316,37.949 253.855,34.362Z" style="fill:rgb(221,138,2);"/>
                    <path d="M160.617,73.042L253,116.816L344.316,73.082C344.015,72.714 343.624,72.417 343.168,72.224C331.021,67.074 261.462,37.775 253,34.188C253,34.188 173.071,67.519 161.581,72.337C161.201,72.497 160.873,72.74 160.617,73.042Z" style="fill:rgb(239,159,14);"/>
                    <g>
                        <path d="M160.617,73.042L253,116.816L344.316,73.082C344.015,72.714 343.624,72.417 343.168,72.224C331.021,67.074 261.462,37.775 253,34.188C253,34.188 173.071,67.519 161.581,72.337C161.201,72.497 160.873,72.74 160.617,73.042Z" style="fill:none;stroke:black;stroke-width:1px;"/>
                        <path d="M253.855,34.362C253.308,34.131 252.691,34.129 252.144,34.359C243.56,37.959 173.071,67.519 161.581,72.337C160.623,72.739 160,73.676 160,74.714C160,79.517 160,93.16 160,99.375C160,101.308 161.093,103.075 162.822,103.938C178.321,111.679 252.407,148.679 252.407,148.679C252.407,148.679 325.533,112.232 341.814,104.117C343.766,103.144 345,101.15 345,98.969C345,92.705 345,79.91 345,74.99C345,73.783 344.279,72.694 343.168,72.224C331.021,67.074 262.316,37.949 253.855,34.362Z" style="fill:none;stroke:black;stroke-width:1px;"/>
                    </g>
                </g>
            </g>
        </g>
    </g>
</svg>
